<svg xmlns="http://www.w3.org/2000/svg" width="306" height="563" fill="none" viewBox="0 0 306 563"><rect width="306" height="302" y="260.429" fill="#bebebe" rx="113"/><path fill="#d9d9d9" d="M55.08 19.162c.217-1.777 2.48-2.397 3.572-.977l70.795 92.124a2 2 0 0 1-1.058 3.148l-84.837 23.208a2 2 0 0 1-2.513-2.17zm196.207.428c-.216-1.777-2.48-2.396-3.571-.976l-70.795 92.124a2 2 0 0 0 1.058 3.148l84.837 23.208a2 2 0 0 0 2.513-2.171zM75.947 415.308c0-2.143 1.746-3.909 3.864-3.583 7.049 1.086 13.652 5.119 18.725 11.533 5.992 7.574 9.357 17.846 9.357 28.557s-3.365 20.984-9.357 28.558c-5.073 6.413-11.676 10.447-18.725 11.532-2.118.327-3.864-1.44-3.864-3.582s1.751-3.843 3.856-4.245c5.418-1.035 10.472-4.233 14.394-9.191 4.84-6.119 7.56-14.418 7.56-23.072s-2.72-16.953-7.56-23.072c-3.922-4.958-8.976-8.155-14.394-9.19-2.105-.402-3.856-2.103-3.856-4.245M229 257.429c0 9.813-8.007 19.224-22.26 26.163s-33.584 10.837-53.74 10.837-39.487-3.898-53.74-10.837S77 267.242 77 257.429zm.947 157.879c0-2.143-1.747-3.909-3.864-3.583-7.049 1.086-13.653 5.119-18.726 11.533-5.991 7.574-9.357 17.846-9.357 28.557s3.366 20.984 9.357 28.558c5.073 6.413 11.677 10.447 18.726 11.532 2.117.327 3.864-1.44 3.864-3.582s-1.752-3.843-3.856-4.245c-5.418-1.035-10.473-4.233-14.395-9.191-4.84-6.119-7.559-14.418-7.559-23.072s2.719-16.953 7.559-23.072c3.922-4.958 8.977-8.155 14.395-9.19 2.104-.402 3.856-2.103 3.856-4.245"/><circle cx="153" cy="171.429" r="118" fill="#bebebe"/><path fill="#d9d9d9" d="M190.84 229.103c-.69 1.622-2.99 1.622-3.68 0l-3.038-7.141a2 2 0 0 1 1.84-2.783h6.076a2 2 0 0 1 1.84 2.783zM241 151.429a2 2 0 0 0-2-2h-68a2 2 0 0 0-2 2v4a2 2 0 0 0 2 2h68a2 2 0 0 0 2-2z"/><path fill="#d9d9d9" d="M194 216.429a2 2 0 0 0-2-2h-68a2 2 0 0 0-2 2v4a2 2 0 0 0 2 2h68a2 2 0 0 0 2-2zm-47-65a2 2 0 0 0-2-2H78a2 2 0 0 0-2 2v4a2 2 0 0 0 2 2h67a2 2 0 0 0 2-2zm37.342 27.65c-.689 1.627-2.995 1.627-3.684 0l-11.27-26.621a2 2 0 0 1 1.841-2.779h22.542c1.432 0 2.4 1.461 1.841 2.779z"/><path fill="#d9d9d9" d="M135.342 179.079c-.689 1.627-2.995 1.627-3.684 0l-11.27-26.621a2 2 0 0 1 1.841-2.779h22.542c1.432 0 2.4 1.461 1.841 2.779zm-6.502 50.024c-.69 1.622-2.99 1.622-3.68 0l-3.038-7.141a2 2 0 0 1 1.84-2.783h6.076a2 2 0 0 1 1.84 2.783zM127 289.429a2 2 0 0 0-2 2v67a2 2 0 0 0 2 2h4a2 2 0 0 0 2-2v-67a2 2 0 0 0-2-2zm49 0a2 2 0 0 0-2 2v67a2 2 0 0 0 2 2h4a2 2 0 0 0 2-2v-67a2 2 0 0 0-2-2z"/><path fill="#d9d9d9" d="M130.84 365.103c-.69 1.622-2.99 1.622-3.68 0l-3.038-7.141a2 2 0 0 1 1.84-2.783h6.076a2 2 0 0 1 1.84 2.783zm49 0c-.69 1.622-2.99 1.622-3.68 0l-3.038-7.141a2 2 0 0 1 1.84-2.783h6.076a2 2 0 0 1 1.84 2.783z"/></svg>